<?xml version="1.0" standalone="no"?>
<!DOCTYPE svg PUBLIC "-//W3C//DTD SVG 20010904//EN"
 "http://www.w3.org/TR/2001/REC-SVG-20010904/DTD/svg10.dtd">
<svg version="1.0" xmlns="http://www.w3.org/2000/svg"
 width="500.000000pt" height="500.000000pt" viewBox="0 0 500.000000 500.000000"
 preserveAspectRatio="xMidYMid meet">

<g transform="translate(0.000000,500.000000) scale(0.100000,-0.100000)"
fill="#000000" stroke="none">
<path d="M2446 3773 c-88 -135 -1466 -2539 -1466 -2558 0 -53 10 -55 288 -55
l257 0 485 850 c267 467 487 850 490 850 3 0 223 -383 490 -850 l485 -850 257
0 c278 0 288 2 288 55 0 18 -1378 2423 -1466 2558 -19 29 -31 37 -54 37 -23 0
-35 -8 -54 -37z"/>
</g>
</svg>
