<svg xmlns="http://www.w3.org/2000/svg" width="1024" height="1024" viewBox="0 0 1024 1024">
<g>
<path d="M 216.50 940.23 C214.58,941.64 212.04,940.98 210.54,938.69 C209.25,936.73 209.18,934.70 210.07,924.94 C213.83,883.64 223.64,816.14 233.59,763.00 C234.98,755.58 238.09,738.90 240.49,725.93 C252.31,662.36 269.41,592.66 291.14,519.50 C326.88,399.17 380.94,271.99 440.53,168.00 C444.47,161.12 450.54,150.55 454.02,144.50 C462.53,129.69 486.84,90.87 495.34,78.50 C508.21,59.78 511.37,57.03 516.26,60.26 C519.95,62.70 542.06,96.35 558.81,125.00 C563.47,132.98 570.31,144.68 574.02,151.00 C617.22,224.66 667.69,330.77 698.17,412.00 C700.95,419.42 703.83,426.85 704.56,428.50 C709.90,440.54 736.15,518.86 745.45,550.50 C746.91,555.45 749.39,563.78 750.97,569.00 C752.54,574.22 755.27,583.67 757.03,590.00 C758.79,596.33 761.05,604.42 762.05,608.00 C764.01,615.03 768.22,631.57 773.51,653.00 C783.51,693.48 802.63,786.37 808.12,821.12 C810.43,835.72 810.20,839.48 806.91,840.53 C803.74,841.53 800.89,838.19 792.86,824.09 C788.92,817.16 783.14,807.22 780.01,802.00 C776.88,796.78 772.38,789.12 770.01,785.00 C760.86,769.09 725.71,715.15 706.04,686.84 C669.09,633.66 632.96,595.65 610.00,585.83 C603.50,583.04 601.08,582.56 591.80,582.20 C582.50,581.84 579.92,582.12 572.08,584.37 C564.03,586.68 540.95,597.33 534.09,601.90 C502.82,622.74 496.43,627.36 476.05,643.85 C448.36,666.27 405.78,705.88 378.44,734.65 C355.92,758.34 313.50,806.80 301.08,823.00 C290.31,837.07 260.38,877.21 255.50,884.14 C246.51,896.92 231.26,919.06 222.55,932.00 C219.77,936.12 217.05,939.83 216.50,940.23 ZM 268.57 784.25 C268.21,786.31 268.10,788.00 268.34,788.00 C268.58,788.00 273.39,782.71 279.04,776.25 C316.64,733.21 373.69,676.72 413.00,643.60 C480.87,586.42 534.42,553.21 571.32,545.44 C581.17,543.36 598.02,543.58 607.09,545.90 C626.67,550.91 645.19,563.49 671.75,589.80 C694.69,612.52 711.08,632.66 737.71,670.81 C740.51,674.83 743.02,677.75 743.28,677.31 C743.54,676.86 742.74,672.90 741.49,668.50 C740.25,664.10 737.58,654.20 735.55,646.50 C730.81,628.47 717.31,582.09 710.95,562.00 C694.96,511.48 671.07,441.39 661.36,416.50 C627.19,328.93 605.01,278.81 571.05,212.45 C548.42,168.21 514.86,109.62 512.57,110.33 C511.40,110.69 494.67,138.16 481.71,161.00 C473.39,175.66 446.82,225.41 443.53,232.50 C442.51,234.70 438.89,242.35 435.48,249.50 C390.23,344.56 358.33,428.60 326.18,537.50 C314.21,578.06 301.39,626.85 295.04,656.00 C286.80,693.86 279.53,728.54 277.55,739.50 C276.75,743.90 274.56,754.92 272.67,764.00 C270.78,773.08 268.94,782.19 268.57,784.25 ZM 814.90 749.75 C809.43,755.94 804.55,761.00 804.07,761.00 C803.59,761.00 803.00,759.09 802.75,756.75 C802.50,754.41 801.32,747.13 800.13,740.56 L 797.97 728.62 L 803.82 721.06 C841.06,672.92 862.87,623.13 872.93,563.24 C878.32,531.14 878.34,485.53 872.97,454.58 C859.87,379.03 826.03,314.51 771.38,260.86 C748.56,238.47 730.64,224.66 703.00,208.18 C671.02,189.12 625.97,171.03 597.59,165.85 C591.60,164.76 590.46,164.20 589.09,161.69 C588.21,160.10 584.28,153.21 580.34,146.40 C576.03,138.92 573.72,134.00 574.53,134.00 C577.95,134.00 610.97,141.35 623.61,144.92 C684.11,162.03 742.88,195.51 787.87,238.50 C795.84,246.12 815.45,267.54 821.28,275.00 C840.66,299.82 851.83,317.23 864.89,343.00 C889.53,391.58 902.11,441.13 904.50,499.00 C905.47,522.42 901.81,563.91 896.93,584.75 C891.81,606.62 890.52,611.44 886.39,623.98 C871.27,669.95 845.66,715.01 814.90,749.75 ZM 229.59 743.92 C227.90,752.77 226.23,760.00 225.86,760.00 C225.50,760.00 222.55,756.96 219.31,753.25 C180.50,708.84 152.47,656.78 137.06,600.50 C133.73,588.35 128.75,560.54 126.85,543.50 C125.21,528.81 125.20,490.76 126.83,474.00 C134.95,390.67 169.01,315.46 226.90,253.08 C236.56,242.67 255.65,224.89 264.37,218.19 C290.01,198.48 300.36,191.50 320.84,180.13 C356.86,160.13 392.59,146.80 432.64,138.43 C441.65,136.54 449.71,135.00 450.55,135.00 C451.65,135.00 450.99,136.61 448.22,140.75 C444.14,146.84 437.27,158.77 435.38,163.06 C434.48,165.12 433.09,165.88 428.38,166.91 C402.90,172.50 376.86,182.03 349.11,195.92 C311.82,214.59 284.89,234.00 255.42,263.44 C228.21,290.62 207.86,318.65 190.01,353.50 C162.75,406.75 149.43,468.81 152.96,526.18 C154.68,554.14 157.15,570.20 163.16,592.50 C166.21,603.83 170.51,617.97 171.97,621.50 C172.43,622.60 173.84,626.20 175.10,629.50 C186.16,658.42 203.51,689.07 225.00,717.67 L 232.65 727.85 ZM 540.00 886.98 C501.56,889.87 458.04,885.32 415.00,873.92 C379.24,864.45 341.17,847.84 308.25,827.35 C306.00,825.95 306.00,825.95 312.25,817.91 C315.69,813.49 319.17,808.78 320.00,807.44 C321.85,804.44 322.14,804.44 326.77,807.34 C342.99,817.53 373.94,832.39 393.63,839.45 C402.14,842.50 417.46,847.08 428.50,849.87 C526.36,874.63 632.46,856.17 717.00,799.69 C731.39,790.07 740.44,783.30 747.28,777.04 C750.47,774.12 753.27,771.94 753.52,772.18 C753.76,772.43 757.15,777.55 761.06,783.56 L 768.15 794.50 L 763.74 798.52 C759.16,802.68 742.86,815.20 735.00,820.58 C726.77,826.22 700.59,841.65 694.00,844.75 C690.42,846.43 682.78,850.03 677.00,852.76 C638.54,870.94 589.02,883.30 540.00,886.98 Z" fill="rgb(18,47,99)"/>
<path d="M 0.00 512.00 L 0.00 0.00 L 512.00 0.00 L 1024.00 0.00 L 1024.00 512.00 L 1024.00 1024.00 L 512.00 1024.00 L 0.00 1024.00 L 0.00 512.00 ZM 216.50 940.23 C217.05,939.83 219.77,936.12 222.55,932.00 C231.26,919.06 246.51,896.92 255.50,884.14 C260.38,877.21 290.31,837.07 301.08,823.00 C313.50,806.80 355.92,758.34 378.44,734.65 C405.78,705.88 448.36,666.27 476.05,643.85 C496.43,627.36 502.82,622.74 534.09,601.90 C540.95,597.33 564.03,586.68 572.08,584.37 C579.92,582.12 582.50,581.84 591.80,582.20 C601.08,582.56 603.50,583.04 610.00,585.83 C632.96,595.65 669.09,633.66 706.04,686.84 C725.71,715.15 760.86,769.09 770.01,785.00 C772.38,789.12 776.88,796.78 780.01,802.00 C783.14,807.22 788.92,817.16 792.86,824.09 C800.89,838.19 803.74,841.53 806.91,840.53 C810.20,839.48 810.43,835.72 808.12,821.12 C802.63,786.37 783.51,693.48 773.51,653.00 C768.22,631.57 764.01,615.03 762.05,608.00 C761.05,604.42 758.79,596.33 757.03,590.00 C755.27,583.67 752.54,574.22 750.97,569.00 C749.39,563.78 746.91,555.45 745.45,550.50 C736.15,518.86 709.90,440.54 704.56,428.50 C703.83,426.85 700.95,419.42 698.17,412.00 C667.69,330.77 617.22,224.66 574.02,151.00 C570.31,144.68 563.47,132.98 558.81,125.00 C542.06,96.35 519.95,62.70 516.26,60.26 C511.37,57.03 508.21,59.78 495.34,78.50 C486.84,90.87 462.53,129.69 454.02,144.50 C450.54,150.55 444.47,161.12 440.53,168.00 C380.94,271.99 326.88,399.17 291.14,519.50 C269.41,592.66 252.31,662.36 240.49,725.93 C238.09,738.90 234.98,755.58 233.59,763.00 C223.64,816.14 213.83,883.64 210.07,924.94 C209.18,934.70 209.25,936.73 210.54,938.69 C212.04,940.98 214.58,941.64 216.50,940.23 ZM 540.00 886.98 C589.02,883.30 638.54,870.94 677.00,852.76 C682.78,850.03 690.42,846.43 694.00,844.75 C700.59,841.65 726.77,826.22 735.00,820.58 C742.86,815.20 759.16,802.68 763.74,798.52 L 768.15 794.50 L 761.06 783.56 C757.15,777.55 753.76,772.43 753.52,772.18 C753.27,771.94 750.47,774.12 747.28,777.04 C740.44,783.30 731.39,790.07 717.00,799.69 C632.46,856.17 526.36,874.63 428.50,849.87 C417.46,847.08 402.14,842.50 393.63,839.45 C373.94,832.39 342.99,817.53 326.77,807.34 C322.14,804.44 321.85,804.44 320.00,807.44 C319.17,808.78 315.69,813.49 312.25,817.91 C306.00,825.95 306.00,825.95 308.25,827.35 C341.17,847.84 379.24,864.45 415.00,873.92 C458.04,885.32 501.56,889.87 540.00,886.98 ZM 814.90 749.75 C845.66,715.01 871.27,669.95 886.39,623.98 C890.52,611.44 891.81,606.62 896.93,584.75 C901.81,563.91 905.47,522.42 904.50,499.00 C902.11,441.13 889.53,391.58 864.89,343.00 C851.83,317.23 840.66,299.82 821.28,275.00 C815.45,267.54 795.84,246.12 787.87,238.50 C742.88,195.51 684.11,162.03 623.61,144.92 C610.97,141.35 577.95,134.00 574.53,134.00 C573.72,134.00 576.03,138.92 580.34,146.40 C584.28,153.21 588.21,160.10 589.09,161.69 C590.46,164.20 591.60,164.76 597.59,165.85 C625.97,171.03 671.02,189.12 703.00,208.18 C730.64,224.66 748.56,238.47 771.38,260.86 C826.03,314.51 859.87,379.03 872.97,454.58 C878.34,485.53 878.32,531.14 872.93,563.24 C862.87,623.13 841.06,672.92 803.82,721.06 L 797.97 728.62 L 800.13 740.56 C801.32,747.13 802.50,754.41 802.75,756.75 C803.00,759.09 803.59,761.00 804.07,761.00 C804.55,761.00 809.43,755.94 814.90,749.75 ZM 229.59 743.92 L 232.65 727.85 L 225.00 717.67 C203.51,689.07 186.16,658.42 175.10,629.50 C173.84,626.20 172.43,622.60 171.97,621.50 C170.51,617.97 166.21,603.83 163.16,592.50 C157.15,570.20 154.68,554.14 152.96,526.18 C149.43,468.81 162.75,406.75 190.01,353.50 C207.86,318.65 228.21,290.62 255.42,263.44 C284.89,234.00 311.82,214.59 349.11,195.92 C376.86,182.03 402.90,172.50 428.38,166.91 C433.09,165.88 434.48,165.12 435.38,163.06 C437.27,158.77 444.14,146.84 448.22,140.75 C450.99,136.61 451.65,135.00 450.55,135.00 C449.71,135.00 441.65,136.54 432.64,138.43 C392.59,146.80 356.86,160.13 320.84,180.13 C300.36,191.50 290.01,198.48 264.37,218.19 C255.65,224.89 236.56,242.67 226.90,253.08 C169.01,315.46 134.95,390.67 126.83,474.00 C125.20,490.76 125.21,528.81 126.85,543.50 C128.75,560.54 133.73,588.35 137.06,600.50 C152.47,656.78 180.50,708.84 219.31,753.25 C222.55,756.96 225.50,760.00 225.86,760.00 C226.23,760.00 227.90,752.77 229.59,743.92 ZM 268.57 784.25 C268.94,782.19 270.78,773.08 272.67,764.00 C274.56,754.92 276.75,743.90 277.55,739.50 C279.53,728.54 286.80,693.86 295.04,656.00 C301.39,626.85 314.21,578.06 326.18,537.50 C358.33,428.60 390.23,344.56 435.48,249.50 C438.89,242.35 442.51,234.70 443.53,232.50 C446.82,225.41 473.39,175.66 481.71,161.00 C494.67,138.16 511.40,110.69 512.57,110.33 C514.86,109.62 548.42,168.21 571.05,212.45 C605.01,278.81 627.19,328.93 661.36,416.50 C671.07,441.39 694.96,511.48 710.95,562.00 C717.31,582.09 730.81,628.47 735.55,646.50 C737.58,654.20 740.25,664.10 741.49,668.50 C742.74,672.90 743.54,676.86 743.28,677.31 C743.02,677.75 740.51,674.83 737.71,670.81 C711.08,632.66 694.69,612.52 671.75,589.80 C645.19,563.49 626.67,550.91 607.09,545.90 C598.02,543.58 581.17,543.36 571.32,545.44 C534.42,553.21 480.87,586.42 413.00,643.60 C373.69,676.72 316.64,733.21 279.04,776.25 C273.39,782.71 268.58,788.00 268.34,788.00 C268.10,788.00 268.21,786.31 268.57,784.25 Z" fill="rgb(253,253,253)"/>
</g>
</svg>