<svg id="svg" version="1.1" xmlns="http://www.w3.org/2000/svg" xmlns:xlink="http://www.w3.org/1999/xlink" width="400" height="399.5955510616785" viewBox="0, 0, 400,399.5955510616785"><g id="svgg"><path id="path0" d="M192.809 84.416 C 188.221 94.141,180.479 110.460,175.606 120.679 C 170.733 130.899,163.142 146.903,158.737 156.244 C 154.332 165.584,147.633 179.700,143.851 187.612 C 140.069 195.524,132.500 211.483,127.030 223.075 C 121.560 234.667,114.094 250.401,110.439 258.040 C 101.679 276.343,89.582 301.937,88.858 303.696 L 88.283 305.095 89.345 303.896 C 105.473 285.678,116.701 276.448,134.466 266.803 C 193.738 234.621,267.724 249.229,311.666 301.791 C 313.083 303.486,314.294 304.820,314.357 304.757 C 314.469 304.645,308.464 291.839,296.621 266.933 C 293.433 260.230,285.968 244.496,280.031 231.968 C 274.094 219.441,263.166 196.424,255.746 180.819 C 248.326 165.215,240.185 148.042,237.655 142.657 C 235.125 137.273,228.299 122.887,222.486 110.689 C 216.673 98.492,209.609 83.611,206.787 77.622 C 203.966 71.633,201.544 66.733,201.404 66.733 C 201.265 66.733,197.397 74.690,192.809 84.416 " stroke="none" fill="#fbfbfb" fill-rule="evenodd"></path><path id="path1" d="M192.607 4.414 C 150.857 6.062,109.832 21.496,78.122 47.485 C 66.751 56.805,60.357 63.131,50.450 74.868 C -9.353 145.712,-9.775 253.109,49.468 324.561 C 58.510 335.467,63.745 340.839,73.526 349.248 C 159.021 422.748,289.643 408.796,357.835 318.881 C 412.388 246.949,410.569 145.582,353.477 76.124 C 345.092 65.922,339.846 60.471,331.469 53.251 C 291.196 18.546,245.119 2.341,192.607 4.414 M205.577 74.239 C 211.402 86.360,221.441 107.542,227.966 121.479 C 231.104 128.182,237.040 140.679,241.157 149.251 C 245.274 157.822,252.829 173.736,257.945 184.615 C 263.061 195.495,270.523 211.229,274.527 219.580 C 278.530 227.932,286.082 243.846,291.307 254.945 C 296.533 266.044,304.162 282.118,308.261 290.665 C 312.360 299.212,315.657 306.376,315.587 306.586 C 315.517 306.797,313.950 305.124,312.105 302.870 C 254.902 232.977,148.804 232.870,90.921 302.647 C 88.950 305.023,87.284 306.806,87.218 306.609 C 87.152 306.411,89.729 300.775,92.945 294.084 C 96.160 287.393,103.965 270.949,110.288 257.542 C 116.611 244.136,124.163 228.222,127.070 222.178 C 129.978 216.134,136.633 202.100,141.860 190.991 C 147.087 179.881,154.465 164.327,158.257 156.425 C 162.048 148.523,169.850 132.078,175.596 119.880 C 190.197 88.881,201.163 65.968,201.399 65.964 C 201.508 65.962,203.389 69.685,205.577 74.239 " stroke="none" fill="#044c83" fill-rule="evenodd"></path><path id="path2" d="M205.894 250.026 C 206.279 250.126,206.908 250.126,207.293 250.026 C 207.677 249.925,207.363 249.843,206.593 249.843 C 205.824 249.843,205.509 249.925,205.894 250.026 " stroke="none" fill="#7a9cba" fill-rule="evenodd"></path><path id="path3" d="M153.911 165.252 C 153.242 166.721,153.369 167.035,154.093 165.699 C 154.431 165.075,154.633 164.490,154.542 164.399 C 154.450 164.307,154.167 164.691,153.911 165.252 M124.740 226.790 C 124.071 228.260,124.198 228.573,124.922 227.237 C 125.260 226.614,125.462 226.028,125.371 225.937 C 125.280 225.846,124.996 226.230,124.740 226.790 M199.301 250.045 C 200.455 250.126,202.343 250.126,203.497 250.045 C 204.650 249.964,203.706 249.898,201.399 249.898 C 199.091 249.898,198.147 249.964,199.301 250.045 M191.109 250.425 C 191.494 250.526,192.123 250.526,192.507 250.425 C 192.892 250.325,192.577 250.243,191.808 250.243 C 191.039 250.243,190.724 250.325,191.109 250.425 M210.689 250.425 C 211.074 250.526,211.703 250.526,212.088 250.425 C 212.473 250.325,212.158 250.243,211.389 250.243 C 210.619 250.243,210.305 250.325,210.689 250.425 M103.272 289.411 L 102.098 290.709 103.397 289.536 C 104.607 288.442,104.879 288.112,104.570 288.112 C 104.501 288.112,103.917 288.696,103.272 289.411 M311.717 298.302 C 311.717 298.521,311.974 299.151,312.288 299.700 C 312.602 300.250,312.859 300.519,312.859 300.300 C 312.859 300.080,312.602 299.451,312.288 298.901 C 311.974 298.352,311.717 298.082,311.717 298.302 M87.339 305.625 C 86.927 306.906,87.240 307.062,88.148 306.028 C 88.568 305.549,88.702 305.279,88.446 305.428 C 88.190 305.577,87.903 305.473,87.809 305.197 C 87.713 304.916,87.506 305.104,87.339 305.625 M314.647 306.001 C 315.559 307.069,315.684 307.096,315.684 306.227 C 315.684 305.861,315.566 305.679,315.421 305.824 C 315.277 305.969,314.872 305.867,314.522 305.598 C 314.132 305.298,314.181 305.454,314.647 306.001 " stroke="none" fill="#547fa5" fill-rule="evenodd"></path><path id="path4" d="M192.713 250.037 C 193.320 250.129,194.219 250.126,194.711 250.032 C 195.202 249.937,194.705 249.862,193.606 249.865 C 192.507 249.868,192.105 249.945,192.713 250.037 M208.697 250.037 C 209.304 250.129,210.203 250.126,210.695 250.032 C 211.186 249.937,210.689 249.862,209.590 249.865 C 208.492 249.868,208.089 249.945,208.697 250.037 M302.490 292.208 C 304.794 294.570,306.727 296.503,306.786 296.503 C 307.075 296.503,306.587 295.991,302.597 292.101 L 298.302 287.912 302.490 292.208 M99.889 292.408 L 97.303 295.105 100.000 292.519 C 101.484 291.097,102.697 289.883,102.697 289.822 C 102.697 289.528,102.290 289.902,99.889 292.408 " stroke="none" fill="#86a4be" fill-rule="evenodd"></path></g></svg>