<svg version="1.1" id="Layer_1" xmlns="http://www.w3.org/2000/svg" xmlns:xlink="http://www.w3.org/1999/xlink" x="0px" y="0px"
	 width="100%" viewBox="0 0 500 500" enable-background="new 0 0 500 500" xml:space="preserve">
<rect x="0" y="0" width="500" height="500" rx="72" ry="72" fill="#FFFFFF"/>
<path fill="#014BAD" opacity="1.000000" stroke="none" 
	d="
M167.189728,260.156769 
	C192.910400,215.630417 218.454056,171.424652 244.002670,127.221741 
	C248.936325,118.685760 253.079361,118.736633 258.089935,127.409561 
	C305.676117,209.777573 353.257904,292.148102 400.836487,374.520508 
	C405.583160,382.738434 403.378479,386.526093 393.824249,386.534393 
	C373.995758,386.551666 354.166901,386.477234 334.339233,386.606140 
	C331.315887,386.625763 329.826447,385.763885 328.253143,382.986877 
	C304.563629,341.172180 280.697662,299.457367 256.811188,257.754578 
	C253.332245,251.680801 248.647263,251.703354 245.171753,257.772888 
	C221.207657,299.623230 197.262024,341.484344 173.466232,383.430359 
	C172.078796,385.876099 170.762726,386.608215 168.125504,386.595032 
	C147.964279,386.494141 127.802284,386.560913 107.640594,386.529480 
	C98.758369,386.515625 96.495987,382.611664 100.904045,374.973938 
	C122.933311,336.804382 144.976273,298.642731 167.189728,260.156769 
z"/>
</svg>