<svg version="1.1" id="Layer_1" xmlns="http://www.w3.org/2000/svg" xmlns:xlink="http://www.w3.org/1999/xlink" x="0px" y="0px"
	 width="100%" viewBox="0 0 500 500" enable-background="new 0 0 500 500" xml:space="preserve">
<path fill="#FFFFFF" opacity="1.000000" stroke="none" 
	d="
M280.000000,501.000000 
	C186.666687,501.000000 93.833374,501.000000 1.000050,501.000000 
	C1.000033,334.333405 1.000033,167.666794 1.000017,1.000139 
	C167.666565,1.000093 334.333130,1.000093 500.999756,1.000046 
	C500.999847,167.666519 500.999847,334.333038 500.999939,500.999786 
	C427.500000,501.000000 354.000000,501.000000 280.000000,501.000000 
M194.360519,211.848343 
	C163.110397,265.984375 131.853195,320.116302 100.618935,374.261475 
	C96.638611,381.161438 98.880302,385.097565 106.765785,385.108032 
	C127.260086,385.135223 147.754868,385.052673 168.248306,385.188660 
	C171.257431,385.208618 172.893829,384.396545 174.436111,381.669922 
	C190.558975,353.165863 206.857040,324.760834 223.109741,296.330200 
	C230.534393,283.342285 237.906311,270.323639 245.422424,257.388824 
	C248.639526,251.852325 253.115387,251.889404 256.526886,257.277374 
	C257.148224,258.258667 257.666046,259.305054 258.243469,260.314636 
	C281.351837,300.718597 304.490387,341.105377 327.504639,381.562897 
	C329.003387,384.197601 330.518555,385.224579 333.617432,385.200348 
	C354.110535,385.040131 374.605499,385.133270 395.099823,385.109161 
	C403.048950,385.099792 405.359741,381.199341 401.406525,374.349030 
	C353.461731,291.268280 305.499603,208.197525 257.522522,125.135422 
	C253.233017,117.709068 248.719177,117.767952 244.378082,125.281052 
	C227.827271,153.925323 211.308777,182.588272 194.360519,211.848343 
z"/>
<path fill="#012776" opacity="1.000000" stroke="none" 
	d="
M194.569366,211.546295 
	C211.308777,182.588272 227.827271,153.925323 244.378082,125.281052 
	C248.719177,117.767952 253.233017,117.709068 257.522522,125.135422 
	C305.499603,208.197525 353.461731,291.268280 401.406525,374.349030 
	C405.359741,381.199341 403.048950,385.099792 395.099823,385.109161 
	C374.605499,385.133270 354.110535,385.040131 333.617432,385.200348 
	C330.518555,385.224579 329.003387,384.197601 327.504639,381.562897 
	C304.490387,341.105377 281.351837,300.718597 258.243469,260.314636 
	C257.666046,259.305054 257.148224,258.258667 256.526886,257.277374 
	C253.115387,251.889404 248.639526,251.852325 245.422424,257.388824 
	C237.906311,270.323639 230.534393,283.342285 223.109741,296.330200 
	C206.857040,324.760834 190.558975,353.165863 174.436111,381.669922 
	C172.893829,384.396545 171.257431,385.208618 168.248306,385.188660 
	C147.754868,385.052673 127.260086,385.135223 106.765785,385.108032 
	C98.880302,385.097565 96.638611,381.161438 100.618935,374.261475 
	C131.853195,320.116302 163.110397,265.984375 194.569366,211.546295 
z"/>
</svg>