<svg version="1.1" id="Layer_1" xmlns="http://www.w3.org/2000/svg" xmlns:xlink="http://www.w3.org/1999/xlink" x="0px" y="0px"
	 width="100%" viewBox="0 0 500 500" enable-background="new 0 0 500 500" xml:space="preserve">
<path fill="#FFFFFF" opacity="1.000000" stroke="none" 
	d="
M285.000000,501.000000 
	C190.000015,501.000000 95.500046,501.000000 1.000051,501.000000 
	C1.000034,334.333405 1.000034,167.666794 1.000017,1.000140 
	C167.666565,1.000093 334.333130,1.000093 500.999756,1.000047 
	C500.999847,167.666519 500.999847,334.333038 500.999939,500.999786 
	C429.166656,501.000000 357.333344,501.000000 285.000000,501.000000 
M167.014420,260.478333 
	C144.976273,298.642731 122.933311,336.804382 100.904045,374.973938 
	C96.495987,382.611664 98.758369,386.515625 107.640594,386.529480 
	C127.802284,386.560913 147.964279,386.494141 168.125504,386.595032 
	C170.762726,386.608215 172.078796,385.876099 173.466232,383.430359 
	C197.262024,341.484344 221.207657,299.623230 245.171753,257.772888 
	C248.647263,251.703354 253.332245,251.680801 256.811188,257.754578 
	C280.697662,299.457367 304.563629,341.172180 328.253143,382.986877 
	C329.826447,385.763885 331.315887,386.625763 334.339233,386.606140 
	C354.166901,386.477234 373.995758,386.551666 393.824249,386.534393 
	C403.378479,386.526093 405.583160,382.738434 400.836487,374.520508 
	C353.257904,292.148102 305.676117,209.777573 258.089935,127.409561 
	C253.079361,118.736633 248.936325,118.685760 244.002670,127.221741 
	C218.454056,171.424652 192.910400,215.630417 167.014420,260.478333 
z"/>
<path fill="#014BAD" opacity="1.000000" stroke="none" 
	d="
M167.189728,260.156769 
	C192.910400,215.630417 218.454056,171.424652 244.002670,127.221741 
	C248.936325,118.685760 253.079361,118.736633 258.089935,127.409561 
	C305.676117,209.777573 353.257904,292.148102 400.836487,374.520508 
	C405.583160,382.738434 403.378479,386.526093 393.824249,386.534393 
	C373.995758,386.551666 354.166901,386.477234 334.339233,386.606140 
	C331.315887,386.625763 329.826447,385.763885 328.253143,382.986877 
	C304.563629,341.172180 280.697662,299.457367 256.811188,257.754578 
	C253.332245,251.680801 248.647263,251.703354 245.171753,257.772888 
	C221.207657,299.623230 197.262024,341.484344 173.466232,383.430359 
	C172.078796,385.876099 170.762726,386.608215 168.125504,386.595032 
	C147.964279,386.494141 127.802284,386.560913 107.640594,386.529480 
	C98.758369,386.515625 96.495987,382.611664 100.904045,374.973938 
	C122.933311,336.804382 144.976273,298.642731 167.189728,260.156769 
z"/>
</svg>